<?xml version="1.0" encoding="UTF-8" standalone="no"?>
<svg
   height="8.3692989"
   viewBox="0 -960 502.15794 334.77196"
   width="12.553948"
   fill="#e8eaed"
   version="1.1"
   id="svg1"
   xmlns="http://www.w3.org/2000/svg"
   xmlns:svg="http://www.w3.org/2000/svg">
  <defs
     id="defs1" />
  <path
     d="m 27.89766,-625.22803 q -11.8565,0 -19.87708,-8.02058 Q 0,-641.26919 0,-653.12569 q 0,-11.85651 8.02058,-19.87709 8.02058,-8.02058 19.87708,-8.02058 h 446.36263 q 11.85651,0 19.87708,8.02058 8.02058,8.02058 8.02058,19.87709 0,11.8565 -8.02058,19.87708 -8.02057,8.02058 -19.87708,8.02058 z m 0,-139.48832 q -11.8565,0 -19.87708,-8.02058 Q 0,-780.75751 0,-792.61401 q 0,-11.85651 8.02058,-19.87709 8.02058,-8.02058 19.87708,-8.02058 h 446.36263 q 11.85651,0 19.87708,8.02058 8.02058,8.02058 8.02058,19.87709 0,11.8565 -8.02058,19.87708 -8.02057,8.02058 -19.87708,8.02058 z m 0,-139.48832 q -11.8565,0 -19.87708,-8.02058 Q 0,-920.24583 0,-932.10233 0,-943.95884 8.02058,-951.97942 16.04116,-960 27.89766,-960 h 446.36263 q 11.85651,0 19.87708,8.02058 8.02058,8.02058 8.02058,19.87709 0,11.8565 -8.02058,19.87708 -8.02057,8.02058 -19.87708,8.02058 z"
     id="path1"
     style="fill:#000000;fill-opacity:1;stroke-width:0.697442" />
</svg>
