<?xml version="1.0" encoding="UTF-8" standalone="no"?>
<svg
   height="13.15"
   viewBox="0 -960 525.99998 525.99998"
   width="13.15"
   fill="#000000"
   version="1.1"
   id="svg1"
   sodipodi:docname="close_24dp_000000_FILL0_wght400_GRAD0_opsz24.svg"
   xmlns:inkscape="http://www.inkscape.org/namespaces/inkscape"
   xmlns:sodipodi="http://sodipodi.sourceforge.net/DTD/sodipodi-0.dtd"
   xmlns="http://www.w3.org/2000/svg"
   xmlns:svg="http://www.w3.org/2000/svg">
  <defs
     id="defs1" />
  <sodipodi:namedview
     id="namedview1"
     pagecolor="#ffffff"
     bordercolor="#000000"
     borderopacity="0.25"
     inkscape:showpageshadow="2"
     inkscape:pageopacity="0.0"
     inkscape:pagecheckerboard="0"
     inkscape:deskcolor="#d1d1d1" />
  <path
     d="m 262.99998,-641.00002 -195.999995,196 q -11,11 -28,11 -17,0 -28,-11 -11.000000258789,-11 -11.000000258789,-28 0,-17 11.000000258789,-28 l 195.999995,-196 -195.999995,-196 q -11.000000258789,-11 -11.000000258789,-28 0,-17 11.000000258789,-28 11,-11 28,-11 17,0 28,11 l 195.999995,196 196,-196 q 11,-11 28,-11 17,0 28,11 11,11 11,28 0,17 -11,28 l -196,196 196,196 q 11,11 11,28 0,17 -11,28 -11,11 -28,11 -17,0 -28,-11 z"
     id="path1" />
</svg>
