<?xml version="1.0" encoding="UTF-8" standalone="no"?>
<!-- Generator: Adobe Illustrator 23.0.3, SVG Export Plug-In . SVG Version: 6.00 Build 0)  -->

<svg
   version="1.1"
   id="Layer_1"
   x="0px"
   y="0px"
   viewBox="0 0 194.19923 193.00002"
   xml:space="preserve"
   width="194.19922"
   height="193.00002"
   xmlns="http://www.w3.org/2000/svg"
   xmlns:svg="http://www.w3.org/2000/svg"><defs
   id="defs12" />
<style
   type="text/css"
   id="style1">
	.st0{fill:#FFFFFF;}
</style>
<title
   id="title1">FindUs-FB-RGB-Blk1024</title>

<path
   d="m 194.1996,97.098285 c 0,-53.6 -43.5,-97.10000008 -97.100005,-97.10000008 -53.6,0 -97.09999983942,43.50000008 -97.09999983942,97.10000008 0,48.499995 35.49999983942,88.699995 81.99999983942,95.899995 v -67.9 h -24.8 V 97.098285 h 24.8 v -21.4 c 0,-24.3 14.4,-37.8 36.600005,-37.8 10.6,0 21.6,2 21.6,2 v 23.7 h -12.2 c -12.1,0 -15.9,7.6 -15.9,15.2 v 18.2 h 27 l -4.3,27.999995 h -22.7 v 67.9 c 46.6,-7.1 82.1,-47.3 82.1,-95.799995 z"
   id="path1-6" /></svg>
